<?xml version="1.0" encoding="utf-8"?>
<!-- Generator: Adobe Illustrator 19.0.0, SVG Export Plug-In . SVG Version: 6.00 Build 0)  -->
<svg version="1.1" id="Шар_1" xmlns="http://www.w3.org/2000/svg" xmlns:xlink="http://www.w3.org/1999/xlink" x="0px" y="0px"
	 viewBox="0 0 60 18" style="enable-background:new 0 0 60 18;" xml:space="preserve">
<g id="XMLID_3_">
	<path id="XMLID_4_" d="M5,1.2v6.4c0,1,0.4,1.6,1.1,1.6c0.3,0,0.6-0.1,0.8-0.3C7.1,8.6,7.2,8.4,7.2,8c0-0.3-0.1-0.6-0.3-0.8
		C6.7,7,6.5,6.9,6.2,6.9C5.9,6.9,5.7,7,5.4,7.2V4c0.3,0,0.6,0,0.8,0c1.1,0,2,0.4,2.8,1.2c0.8,0.8,1.2,1.7,1.2,2.9
		c0,1.1-0.4,2.1-1.2,2.9S7.2,12,6.1,12c-0.6,0-1.2-0.1-1.7-0.4s-1-0.6-1.4-1C2.4,9.9,2.1,8.9,2.1,7.7V1.2H5z"/>
	<path id="XMLID_6_" d="M14.4,4.1v7.8h-2.9V4.1H14.4z M13,0.6c0.4,0,0.7,0.1,1,0.4c0.3,0.3,0.4,0.6,0.4,1c0,0.4-0.1,0.7-0.4,1
		c-0.3,0.3-0.6,0.4-1.1,0.4c-0.4,0-0.8-0.1-1.1-0.4c-0.3-0.3-0.4-0.6-0.4-1c0-0.4,0.1-0.7,0.4-1C12.2,0.8,12.6,0.6,13,0.6z"/>
	<path id="XMLID_9_" d="M23.8,8.5h-4.4c-0.1-0.2-0.1-0.4-0.1-0.6c0-0.3,0-0.5,0.1-0.8h1.5c-0.1-0.6-0.4-0.9-1-0.9
		c-0.4,0-0.7,0.2-0.9,0.5c-0.2,0.3-0.3,0.7-0.3,1.2c0,0.5,0.1,0.9,0.3,1.2c0.2,0.3,0.5,0.5,0.9,0.5c0.3,0,0.6-0.1,0.8-0.4l1.7,2
		c-0.8,0.6-1.6,0.9-2.6,0.9c-1.2,0-2.1-0.4-2.9-1.2c-0.8-0.8-1.2-1.7-1.2-2.9c0-1.1,0.4-2.1,1.2-2.9c0.8-0.8,1.8-1.2,2.9-1.2
		c1.1,0,2.1,0.4,2.8,1.2c0.8,0.8,1.2,1.7,1.2,2.8C23.8,8,23.8,8.2,23.8,8.5z"/>
	<path id="XMLID_11_" d="M31.9,11.9H29V7.5c0-0.4-0.2-0.7-0.6-0.7c-0.4,0-0.5,0.2-0.5,0.7v4.4H25V7.5c0-1,0.3-1.9,1-2.6s1.5-1,2.5-1
		c1.1,0,2,0.4,2.7,1.2c0.5,0.6,0.8,1.5,0.8,2.6V11.9z"/>
	<path id="XMLID_13_" d="M37.3,3.9c1.1,0,2.1,0.4,2.8,1.2C41,5.9,41.4,6.9,41.4,8c0,1.1-0.4,2.1-1.2,2.9c-0.8,0.8-1.8,1.2-2.9,1.2
		s-2.1-0.4-2.9-1.2S33.2,9.1,33.2,8c0-1.1,0.4-2.1,1.2-2.9C35.2,4.3,36.2,3.9,37.3,3.9z M37.3,6.8c-0.3,0-0.6,0.1-0.8,0.3
		S36.1,7.7,36.1,8c0,0.3,0.1,0.6,0.3,0.8C36.7,9,37,9.2,37.3,9.2c0.3,0,0.6-0.1,0.8-0.3c0.2-0.2,0.3-0.5,0.3-0.8
		c0-0.3-0.1-0.6-0.3-0.8S37.6,6.8,37.3,6.8z"/>
	<path id="XMLID_16_" d="M48.4,4.1l-3.6,8.1l-3.6-8.1H44l0.8,2.1l0.9-2.1H48.4z"/>
</g>
</svg>
